<?xml version="1.0" encoding="iso-8859-1"?>
<!-- Generator: Adobe Illustrator 19.0.0, SVG Export Plug-In . SVG Version: 6.00 Build 0)  -->
<svg version="1.1" id="Capa_1" xmlns="http://www.w3.org/2000/svg" xmlns:xlink="http://www.w3.org/1999/xlink" x="0px" y="0px"
	 viewBox="0 0 512.001 512.001" style="enable-background:new 0 0 512.001 512.001;" xml:space="preserve">
<g>
	<g>
		<path d="M232.22,353.141l-43.965-82.653c-0.195-0.39-0.39-0.781-0.683-1.074c-2.443-2.442-7.914-0.684-10.845,2.247
			c-1.66,1.661-2.442,3.614-1.367,5.667l39.666,71.71l-71.808-39.568c-2.053-1.075-4.007-0.293-5.765,1.465
			c-2.833,2.833-4.689,8.207-2.149,10.747c0.293,0.293,0.586,0.586,0.977,0.781l82.847,43.77c3.127,1.563,7.132-0.098,10.063-3.029
			C232.122,360.273,233.881,356.17,232.22,353.141z"/>
	</g>
</g>
<g>
	<g>
		<path d="M271.788,312.596l-64.677-64.677c-2.345-2.344-5.862-0.781-8.5,1.857c-2.54,2.54-4.201,6.154-1.856,8.499l64.677,64.677
			c2.248,2.247,6.058,0.781,8.598-1.759C272.667,318.555,274.035,314.843,271.788,312.596z"/>
	</g>
</g>
<g>
	<g>
		<path d="M297.481,286.902l-24.132-24.132l12.115-12.115c12.31-12.309,16.023-27.941,0.391-43.573l-0.782-0.781
			c-15.729-15.73-30.872-12.115-42.889-0.098l-19.051,19.051c-2.442,2.443-2.442,5.57-0.684,7.328l64.675,64.677
			c2.248,2.247,6.058,0.781,8.598-1.759C298.36,292.862,299.728,289.149,297.481,286.902z M238.667,228.087l12.115-12.115
			c7.229-7.229,15.631-7.62,24.229,0.978l1.173,1.173c8.597,8.597,8.304,17.097,1.074,24.327l-12.114,12.114L238.667,228.087z"/>
	</g>
</g>
<g>
	<g>
		<path d="M507.459,180.035l-8.279-8.279c-4.908-4.907-12.383-5.932-18.603-2.55c-5.272,2.867-11.922,1.901-16.172-2.35
			c-4.25-4.25-5.217-10.901-2.35-16.173c3.382-6.22,2.357-13.695-2.55-18.603l-19.953-19.953c-4.906-4.908-12.383-5.933-18.604-2.55
			c-5.271,2.867-11.922,1.9-16.172-2.35s-5.217-10.901-2.35-16.173c3.382-6.22,2.358-13.696-2.55-18.603l-19.955-19.954
			c-4.907-4.907-12.382-5.933-18.603-2.55c-5.273,2.865-11.923,1.9-16.173-2.35s-5.216-10.901-2.35-16.173
			c3.382-6.219,2.357-13.695-2.55-18.603l-8.279-8.279c-6.056-6.056-15.909-6.057-21.966,0L4.543,310
			c-6.056,6.056-6.055,15.91,0,21.966l8.315,8.315c4.879,4.879,12.323,5.92,18.523,2.594c5.258-2.82,11.878-1.84,16.103,2.384
			c4.224,4.224,5.204,10.846,2.384,16.103c-3.327,6.201-2.284,13.645,2.594,18.523l20.025,20.025
			c4.878,4.879,12.323,5.92,18.523,2.594c5.258-2.82,11.879-1.839,16.103,2.384c4.224,4.224,5.204,10.845,2.384,16.103
			c-3.327,6.201-2.284,13.644,2.594,18.523l20.025,20.025c4.879,4.879,12.324,5.921,18.524,2.595
			c5.256-2.821,11.878-1.84,16.102,2.384s5.204,10.846,2.384,16.103c-3.326,6.201-2.284,13.644,2.594,18.523l8.315,8.315
			c3.028,3.028,7.005,4.542,10.983,4.542c3.977,0,7.955-1.514,10.983-4.542L507.459,202
			C513.515,195.944,513.515,186.09,507.459,180.035z M496.894,191.435l-45.119,45.119l-13.571-13.571
			c-2.917-2.917-7.648-2.917-10.565,0c-2.918,2.917-2.918,7.648,0,10.565l13.571,13.571L191.437,496.892
			c-0.231,0.231-0.605,0.23-0.836,0l-8.315-8.315c-0.211-0.212-0.144-0.611,0.007-0.894c5.91-11.016,3.86-24.887-4.985-33.732
			c-5.468-5.468-12.854-8.339-20.301-8.339c-4.601,0-9.224,1.096-13.431,3.354c-0.283,0.151-0.683,0.217-0.894,0.006l-20.025-20.025
			c-0.211-0.212-0.144-0.611,0.007-0.894c6.004-11.19,4-24.746-4.985-33.732c-8.985-8.985-22.542-10.989-33.731-4.985
			c-0.282,0.151-0.682,0.219-0.894,0.007l-20.025-20.025c-0.212-0.212-0.144-0.612,0.007-0.894
			c5.91-11.016,3.86-24.887-4.986-33.732c-8.845-8.845-22.717-10.895-33.731-4.985c-0.282,0.151-0.682,0.219-0.894,0.007
			l-8.315-8.315c-0.23-0.23-0.23-0.605,0-0.835L264.881,70.792l14.285,14.285c1.459,1.459,3.371,2.188,5.283,2.188
			s3.824-0.73,5.283-2.188c2.918-2.917,2.918-7.648,0-10.565l-14.285-14.285l45.118-45.118c0.231-0.231,0.605-0.23,0.836,0
			l8.279,8.279c0.213,0.214,0.144,0.616-0.011,0.901c-6.007,11.047-3.987,24.977,4.911,33.875
			c8.898,8.899,22.829,10.918,33.876,4.911c0.285-0.154,0.687-0.224,0.9-0.011l19.953,19.953c0.213,0.213,0.143,0.616-0.011,0.9
			c-6.007,11.047-3.987,24.977,4.911,33.876c8.899,8.899,22.829,10.918,33.875,4.911c0.285-0.155,0.687-0.223,0.9-0.011
			l19.953,19.953c0.213,0.213,0.143,0.615-0.011,0.9c-6.007,11.047-3.987,24.977,4.911,33.876s22.827,10.918,33.875,4.911
			c0.285-0.155,0.688-0.224,0.901-0.011l8.279,8.279C497.124,190.83,497.124,191.205,496.894,191.435z"/>
	</g>
</g>
<g>
	<g>
		<path d="M395.149,246.689l-52.172-52.172c-2.917-2.917-7.648-2.917-10.565,0c-2.918,2.917-2.918,7.648,0,10.565l48.479,48.479
			L207.826,426.625l-48.479-48.479c-2.917-2.917-7.648-2.917-10.565,0c-2.918,2.917-2.918,7.648,0,10.565l52.172,52.172
			c1.836,1.836,4.276,2.847,6.872,2.847c2.597,0,5.038-1.012,6.872-2.847L395.15,260.432
			C398.936,256.643,398.936,250.479,395.149,246.689z"/>
	</g>
</g>
<g>
	<g>
		<path d="M317.861,169.402l-52.551-52.551c-3.788-3.787-9.953-3.787-13.743,0.001L71.119,297.301
			c-1.837,1.836-2.848,4.276-2.848,6.873c0,2.596,1.011,5.037,2.847,6.872l52.55,52.55c1.459,1.459,3.371,2.188,5.283,2.188
			c1.912,0,3.824-0.73,5.283-2.188c2.918-2.917,2.918-7.648,0-10.565l-48.856-48.856l173.063-173.063l48.855,48.855
			c2.917,2.917,7.648,2.917,10.565,0C320.779,177.05,320.779,172.319,317.861,169.402z"/>
	</g>
</g>
<g>
	<g>
		<path d="M413.089,197.869l-16.004-16.004c-2.917-2.918-7.648-2.918-10.565,0c-2.918,2.917-2.918,7.648,0,10.565l16.003,16.004
			c1.459,1.459,3.371,2.188,5.283,2.188s3.824-0.73,5.283-2.188C416.007,205.517,416.007,200.786,413.089,197.869z"/>
	</g>
</g>
<g>
	<g>
		<path d="M371.633,156.413l-15.666-15.666c-2.917-2.917-7.648-2.917-10.565,0c-2.918,2.917-2.918,7.648,0,10.565l15.665,15.666
			c1.459,1.459,3.371,2.188,5.283,2.188s3.824-0.73,5.283-2.188C374.551,164.061,374.551,159.33,371.633,156.413z"/>
	</g>
</g>
<g>
	<g>
		<path d="M330.85,115.631l-16.003-16.003c-2.917-2.917-7.648-2.917-10.565,0c-2.918,2.917-2.918,7.648,0,10.565l16.002,16.003
			c1.459,1.459,3.371,2.188,5.283,2.188s3.824-0.73,5.283-2.188C333.769,123.279,333.769,118.548,330.85,115.631z"/>
	</g>
</g>
<g>
</g>
<g>
</g>
<g>
</g>
<g>
</g>
<g>
</g>
<g>
</g>
<g>
</g>
<g>
</g>
<g>
</g>
<g>
</g>
<g>
</g>
<g>
</g>
<g>
</g>
<g>
</g>
<g>
</g>
</svg>
