<?xml version="1.0" encoding="iso-8859-1"?>
<!-- Generator: Adobe Illustrator 19.0.0, SVG Export Plug-In . SVG Version: 6.00 Build 0)  -->
<svg version="1.1" id="Capa_1" xmlns="http://www.w3.org/2000/svg" xmlns:xlink="http://www.w3.org/1999/xlink" x="0px" y="0px"
	 viewBox="0 0 382.4 382.4" style="enable-background:new 0 0 382.4 382.4;" xml:space="preserve">
<g>
	<g>
		<path d="M312.4,170.4h-16.8H266v-96c0-1.2,0-2.4,0-3.6c0-0.4,0-0.8,0-0.8c0-0.4,0-1.2-0.4-1.6C262.4,30,230.4,0,191.2,0
			c-41.2,0-74.8,33.6-74.8,74.8v96H86.8H70c-3.2,0-6,2.4-6,6c0,3.2,2.4,6,6,6h11.2c2.8,56,48,101.2,104,104v66.4H140
			c-12.8,0-23.2,10.4-23.2,23.2c0,3.2,2.4,6,6,6h136.4c3.6-0.8,6-3.2,6-6.4c0-12.8-10.4-23.2-23.2-23.2h-44.8v-66.4
			c56-2.8,101.2-48,104-104h11.2c3.2,0,6-2.4,6-6C318.4,173.2,316,170.4,312.4,170.4z M128,154h41.2c3.2,0,6-2.4,6-6
			c0-3.2-2.4-6-6-6H128v-14.4h41.2c3.2,0,6-2.4,6-6c0-3.2-2.4-6-6-6H128v-14.4h41.2c3.2,0,6-2.4,6-6c0-3.2-2.4-6-6-6H128V74.8h41.2
			c3.2,0,6-2.4,6-6c0-3.2-2.4-6-6-6h-40c4.4-26.8,27.6-48.4,56-51.2V240c-32-2.8-57.2-30-57.2-62.8V154z M92.8,182.4h24
			c2.4,36.8,32,66.4,68.8,69.2v23.2C135.6,272,95.6,232,92.8,182.4z M242.4,364.4c4,0,8,2.4,10,5.6h-122c2-3.2,5.6-5.6,10-5.6H242.4
			z M197.2,11.6c28.4,2.8,51.6,24.4,56.4,52.4H214c-3.2,0-6,2.4-6,6c0,3.2,2.4,6,6,6h40.4v14.4H214c-3.2,0-6,2.4-6,6
			c0,3.2,2.4,6,6,6h40.4v14.4H214c-3.2,0-6,2.4-6,6c0,3.2,2.4,6,6,6h40.4v14.4H214c-3.2,0-6,2.4-6,6c0,3.2,2.4,6,6,6h40.4v23.2
			c0,32.8-25.2,60-57.2,62.8V11.6z M197.2,274.8v-23.2c36.8-2.8,66-32.4,68.8-69.2h24C286.8,232,246.8,272,197.2,274.8z"/>
	</g>
</g>
<g>
</g>
<g>
</g>
<g>
</g>
<g>
</g>
<g>
</g>
<g>
</g>
<g>
</g>
<g>
</g>
<g>
</g>
<g>
</g>
<g>
</g>
<g>
</g>
<g>
</g>
<g>
</g>
<g>
</g>
</svg>
